HIERARCHY
ROOT Hips
{
	OFFSET 0.000000 83.214638 0.000000
	CHANNELS 6 Xposition Yposition Zposition Xrotation Yrotation Zrotation
	JOINT Pelvis
	{
		OFFSET 0.000000 0.000000 0.000000
		CHANNELS 3 Xrotation Yrotation Zrotation
		JOINT LeftUpLeg
		{
			OFFSET 8.479700 -4.795502 -0.379100
			CHANNELS 3 Xrotation Yrotation Zrotation
			JOINT LeftLeg
			{
				OFFSET 0.024144 -32.555107 0.112900
				CHANNELS 3 Xrotation Yrotation Zrotation
				JOINT LeftFoot
				{
					OFFSET -0.024144 -32.638630 -3.012600
					CHANNELS 3 Xrotation Yrotation Zrotation
					JOINT LeftToeBase
					{
						OFFSET 0.970200 -13.225400 11.864200
						CHANNELS 3 Xrotation Yrotation Zrotation
						End Site
						{
							OFFSET 0.000000 12.319262 0.000000
						}
					}
					JOINT LFootTongue
					{
						OFFSET 1.142400 -1.059800 6.665200
						CHANNELS 3 Xrotation Yrotation Zrotation
						End Site
						{
							OFFSET 0.000000 12.319262 0.000000
						}
					}
				}
				JOINT LeftPantLeg
				{
					OFFSET 0.918482 -16.533964 -2.284700
					CHANNELS 3 Xrotation Yrotation Zrotation
					End Site
					{
						OFFSET 0.350399 24.744368 0.000000
					}
				}
			}
		}
		JOINT RightUpLeg
		{
			OFFSET -8.479700 -4.795502 -0.379100
			CHANNELS 3 Xrotation Yrotation Zrotation
			JOINT RightLeg
			{
				OFFSET -0.023144 -32.555092 0.112900
				CHANNELS 3 Xrotation Yrotation Zrotation
				JOINT RightFoot
				{
					OFFSET 0.023144 -32.638641 -3.012700
					CHANNELS 3 Xrotation Yrotation Zrotation
					JOINT RightToeBase
					{
						OFFSET -0.970200 -13.225400 11.864200
						CHANNELS 3 Xrotation Yrotation Zrotation
						End Site
						{
							OFFSET 0.000000 12.319244 0.000000
						}
					}
					JOINT RFootTongue
					{
						OFFSET -1.142200 -1.059800 6.665200
						CHANNELS 3 Xrotation Yrotation Zrotation
						End Site
						{
							OFFSET 0.000000 12.319243 0.000000
						}
					}
				}
				JOINT RightPantLeg
				{
					OFFSET -0.919482 -16.533978 -2.284800
					CHANNELS 3 Xrotation Yrotation Zrotation
					End Site
					{
						OFFSET -0.350400 24.744419 0.000000
					}
				}
			}
		}
	}
	JOINT Spine
	{
		OFFSET 0.000000 7.722000 1.166200
		CHANNELS 3 Xrotation Yrotation Zrotation
		JOINT Spine1
		{
			OFFSET 0.000000 12.024101 0.248800
			CHANNELS 3 Xrotation Yrotation Zrotation
			JOINT Spine2
			{
				OFFSET 0.000000 11.502998 -0.491200
				CHANNELS 3 Xrotation Yrotation Zrotation
				JOINT Neck
				{
					OFFSET 0.000000 18.430702 -3.123100
					CHANNELS 3 Xrotation Yrotation Zrotation
					JOINT Head
					{
						OFFSET 0.000000 9.051102 1.034000
						CHANNELS 3 Xrotation Yrotation Zrotation
						JOINT HairB
						{
							OFFSET 0.208400 24.786102 24.822300
							CHANNELS 3 Xrotation Yrotation Zrotation
							End Site
							{
								OFFSET 0.000000 32.263779 0.000000
							}
						}
						JOINT HairA
						{
							OFFSET -7.081100 24.428299 23.196600
							CHANNELS 3 Xrotation Yrotation Zrotation
							End Site
							{
								OFFSET 0.000000 32.263779 0.000000
							}
						}
						JOINT Hat
						{
							OFFSET 16.728800 15.048294 -15.439601
							CHANNELS 3 Xrotation Yrotation Zrotation
							End Site
							{
								OFFSET 0.000000 32.263779 0.000000
							}
						}
					}
				}
				JOINT LeftShoulder
				{
					OFFSET 6.197800 13.665199 -4.064700
					CHANNELS 3 Xrotation Yrotation Zrotation
					JOINT LeftArm
					{
						OFFSET 7.778100 -0.187103 -1.709300
						CHANNELS 3 Xrotation Yrotation Zrotation
						JOINT LeftForeArm
						{
							OFFSET 22.049376 0.000000 0.000000
							CHANNELS 3 Xrotation Yrotation Zrotation
							JOINT LeftHand
							{
								OFFSET 23.009392 0.000000 0.000000
								CHANNELS 3 Xrotation Yrotation Zrotation
								JOINT LeftHandThumb1
								{
									OFFSET 3.507191 -2.063065 3.133727
									CHANNELS 3 Xrotation Yrotation Zrotation
									JOINT LeftHandThumb2
									{
										OFFSET 3.101337 -1.790558 1.790558
										CHANNELS 3 Xrotation Yrotation Zrotation
										JOINT LeftHandThumb3
										{
											OFFSET 3.058640 -1.765907 1.765906
											CHANNELS 3 Xrotation Yrotation Zrotation
											End Site
											{
												OFFSET -0.415260 3.926476 -0.049563
											}
										}
									}
								}
								JOINT LeftHandIndex1
								{
									OFFSET 11.334419 -0.901459 3.706815
									CHANNELS 3 Xrotation Yrotation Zrotation
									JOINT LeftHandIndex2
									{
										OFFSET 3.283112 0.000000 0.000000
										CHANNELS 3 Xrotation Yrotation Zrotation
										JOINT LeftHandIndex3
										{
											OFFSET 3.323853 0.000000 0.000000
											CHANNELS 3 Xrotation Yrotation Zrotation
											End Site
											{
												OFFSET -1.135597 3.097809 0.402452
											}
										}
									}
								}
								JOINT LeftHandMiddle1
								{
									OFFSET 11.335861 0.000000 0.000000
									CHANNELS 3 Xrotation Yrotation Zrotation
									JOINT LeftHandMiddle2
									{
										OFFSET 3.410492 0.000000 0.000000
										CHANNELS 3 Xrotation Yrotation Zrotation
										JOINT LeftHandMiddle3
										{
											OFFSET 3.312172 0.000000 0.000000
											CHANNELS 3 Xrotation Yrotation Zrotation
											End Site
											{
												OFFSET -1.150200 3.080154 0.400270
											}
										}
									}
								}
								JOINT LeftHandRing1
								{
									OFFSET 11.514786 -0.013176 -3.003090
									CHANNELS 3 Xrotation Yrotation Zrotation
									JOINT LeftHandRing2
									{
										OFFSET 3.053307 0.000000 0.000000
										CHANNELS 3 Xrotation Yrotation Zrotation
										JOINT LeftHandRing3
										{
											OFFSET 3.295807 0.000000 0.000000
											CHANNELS 3 Xrotation Yrotation Zrotation
											End Site
											{
												OFFSET -1.281006 3.013344 0.375733
											}
										}
									}
								}
								JOINT LeftHandPinky1
								{
									OFFSET 10.518692 -0.960396 -5.730441
									CHANNELS 3 Xrotation Yrotation Zrotation
									JOINT LeftHandPinky2
									{
										OFFSET 2.861649 0.000000 0.000000
										CHANNELS 3 Xrotation Yrotation Zrotation
										JOINT LeftHandPinky3
										{
											OFFSET 2.863380 0.000000 0.000000
											CHANNELS 3 Xrotation Yrotation Zrotation
											End Site
											{
												OFFSET -0.843597 2.711159 0.369971
											}
										}
									}
								}
							}
							JOINT LSleeve
							{
								OFFSET 6.676277 -0.344902 -1.011730
								CHANNELS 3 Xrotation Yrotation Zrotation
								End Site
								{
									OFFSET 0.000000 14.885353 0.000000
								}
							}
						}
					}
				}
				JOINT RightShoulder
				{
					OFFSET -6.197800 13.665199 -4.064700
					CHANNELS 3 Xrotation Yrotation Zrotation
					JOINT RightArm
					{
						OFFSET -7.778100 -0.187103 -1.709300
						CHANNELS 3 Xrotation Yrotation Zrotation
						JOINT RightForeArm
						{
							OFFSET -22.049376 0.000000 0.000000
							CHANNELS 3 Xrotation Yrotation Zrotation
							JOINT RightHand
							{
								OFFSET -23.009392 0.000000 0.000000
								CHANNELS 3 Xrotation Yrotation Zrotation
								JOINT RightHandThumb1
								{
									OFFSET -3.507191 -2.063065 3.133727
									CHANNELS 3 Xrotation Yrotation Zrotation
									JOINT RightHandThumb2
									{
										OFFSET -3.101337 -1.790558 1.790558
										CHANNELS 3 Xrotation Yrotation Zrotation
										JOINT RightHandThumb3
										{
											OFFSET -3.058640 -1.765907 1.765906
											CHANNELS 3 Xrotation Yrotation Zrotation
											End Site
											{
												OFFSET 0.415260 3.926476 -0.049563
											}
										}
									}
								}
								JOINT RightHandIndex1
								{
									OFFSET -11.334419 -0.901459 3.706815
									CHANNELS 3 Xrotation Yrotation Zrotation
									JOINT RightHandIndex2
									{
										OFFSET -3.283112 0.000000 0.000000
										CHANNELS 3 Xrotation Yrotation Zrotation
										JOINT RightHandIndex3
										{
											OFFSET -3.323853 0.000000 0.000000
											CHANNELS 3 Xrotation Yrotation Zrotation
											End Site
											{
												OFFSET 1.135597 3.097809 0.402452
											}
										}
									}
								}
								JOINT RightHandMiddle1
								{
									OFFSET -11.335861 0.000000 0.000000
									CHANNELS 3 Xrotation Yrotation Zrotation
									JOINT RightHandMiddle2
									{
										OFFSET -3.410492 0.000000 0.000000
										CHANNELS 3 Xrotation Yrotation Zrotation
										JOINT RightHandMiddle3
										{
											OFFSET -3.312172 0.000000 0.000000
											CHANNELS 3 Xrotation Yrotation Zrotation
											End Site
											{
												OFFSET 1.150200 3.080154 0.400270
											}
										}
									}
								}
								JOINT RightHandRing1
								{
									OFFSET -11.514786 -0.013176 -3.003090
									CHANNELS 3 Xrotation Yrotation Zrotation
									JOINT RightHandRing2
									{
										OFFSET -3.053307 0.000000 0.000000
										CHANNELS 3 Xrotation Yrotation Zrotation
										JOINT RightHandRing3
										{
											OFFSET -3.295807 0.000000 0.000000
											CHANNELS 3 Xrotation Yrotation Zrotation
											End Site
											{
												OFFSET 1.281006 3.013344 0.375733
											}
										}
									}
								}
								JOINT RightHandPinky1
								{
									OFFSET -10.518692 -0.960396 -5.730441
									CHANNELS 3 Xrotation Yrotation Zrotation
									JOINT RightHandPinky2
									{
										OFFSET -2.861649 0.000000 0.000000
										CHANNELS 3 Xrotation Yrotation Zrotation
										JOINT RightHandPinky3
										{
											OFFSET -2.863380 0.000000 0.000000
											CHANNELS 3 Xrotation Yrotation Zrotation
											End Site
											{
												OFFSET 0.843597 2.711159 0.369971
											}
										}
									}
								}
							}
							JOINT RSleeve
							{
								OFFSET -6.676277 -0.344902 -1.011730
								CHANNELS 3 Xrotation Yrotation Zrotation
								End Site
								{
									OFFSET 0.000000 14.885353 0.000000
								}
							}
						}
					}
				}
				JOINT Backpack
				{
					OFFSET 0.000000 -2.471497 36.677502
					CHANNELS 3 Xrotation Yrotation Zrotation
					End Site
					{
						OFFSET 0.000000 20.427315 0.000000
					}
				}
				JOINT Hood
				{
					OFFSET 0.000000 18.754097 -10.431000
					CHANNELS 3 Xrotation Yrotation Zrotation
					JOINT Hood1
					{
						OFFSET 0.000000 -5.011002 -7.685901
						CHANNELS 3 Xrotation Yrotation Zrotation
						End Site
						{
							OFFSET 0.000000 9.175140 0.000000
						}
					}
				}
				JOINT LHoodieString
				{
					OFFSET 5.250500 16.397697 3.089900
					CHANNELS 3 Xrotation Yrotation Zrotation
					JOINT LHoodieString1
					{
						OFFSET 0.257700 -6.364304 3.694600
						CHANNELS 3 Xrotation Yrotation Zrotation
						JOINT LHoodieString2
						{
							OFFSET 0.000000 -9.643799 2.679100
							CHANNELS 3 Xrotation Yrotation Zrotation
							End Site
							{
								OFFSET 0.000000 10.009018 0.000000
							}
						}
					}
				}
				JOINT RHoodieString
				{
					OFFSET -5.250500 16.397697 3.089900
					CHANNELS 3 Xrotation Yrotation Zrotation
					JOINT RHoodieString1
					{
						OFFSET -0.257700 -6.364304 3.694600
						CHANNELS 3 Xrotation Yrotation Zrotation
						JOINT RHoodieString2
						{
							OFFSET 0.000000 -9.643799 2.679100
							CHANNELS 3 Xrotation Yrotation Zrotation
							End Site
							{
								OFFSET 0.000000 10.009018 0.000000
							}
						}
					}
				}
			}
			JOINT LBackpack_Strap
			{
				OFFSET 15.223200 -7.719803 -6.610900
				CHANNELS 3 Xrotation Yrotation Zrotation
				End Site
				{
					OFFSET 0.000000 16.040596 0.000000
				}
			}
			JOINT RBackpack_Strap
			{
				OFFSET -15.223000 -7.719803 -6.610900
				CHANNELS 3 Xrotation Yrotation Zrotation
				End Site
				{
					OFFSET 0.000000 16.040596 0.000000
				}
			}
		}
	}
	JOINT BoyFacialAnim_Joint
	{
		OFFSET 1.000000 -82.208099 -1.550900
		CHANNELS 3 Xrotation Yrotation Zrotation
		End Site
		{
			OFFSET 0.000000 30.012791 0.000000
		}
	}
}
MOTION
Frames: 4
Frame Time: 0.033333
-0.250043 70.702057 0.244974 11.695784 -49.489532 11.290263 -0.000000 -0.000002 0.000000 -64.578537 28.127848 42.220937 45.036174 -20.081176 3.175748 2.545441 0.952101 -10.119431 -0.000000 0.000000 0.000000 -0.000000 0.000000 -0.000000 0.000000 -0.000001 -0.000000 -33.975403 -0.459133 -24.258143 53.259397 1.997547 -6.750452 -26.565222 -2.745280 24.293545 -0.000000 0.000002 -0.000000 -0.000000 0.000002 -0.000000 -0.000002 -0.000000 -0.000003 10.973362 2.836659 -2.050324 6.100712 5.566528 -4.284680 -5.786918 6.328144 -3.046188 2.318707 9.363364 -0.265429 -4.146697 23.161858 -3.523171 0.000000 0.000000 0.000001 0.000000 0.000000 0.000001 0.000000 0.000000 0.000001 -1.875345 -16.181755 -2.870483 -10.644663 2.164770 -45.510595 -22.862414 -25.786292 -15.871714 2.491046 -2.511840 6.860468 18.457973 -9.513781 13.216613 -1.150207 11.255308 -8.400859 -0.000002 0.000001 -0.000001 -1.232788 -5.771942 -0.192315 0.133952 -0.197665 -4.602131 0.000003 0.000001 -0.000005 1.884730 4.663353 -4.597397 0.476697 -1.009817 -12.986424 0.000004 0.000000 0.000000 3.024613 7.938915 -14.103486 -0.708003 -0.566206 -18.895742 0.000001 0.000001 -0.000000 2.010393 6.305954 -22.386544 -0.815377 -0.210771 -16.746476 -0.000001 -0.000003 0.000001 -0.000000 -0.000001 0.000000 -5.074855 24.345994 1.483091 6.642513 -34.736037 57.610433 -21.032017 44.833830 19.961723 -0.087242 35.608515 7.474255 55.149543 18.649533 -29.698277 -0.442531 -14.180542 7.313151 -0.000000 0.000004 0.000001 5.673395 7.585009 36.844147 1.050460 3.824483 68.900237 -0.000000 -0.000000 0.000002 -0.125686 1.886093 45.000776 -1.169015 3.204681 68.417663 0.000000 -0.000003 0.000003 -5.311991 1.216625 58.508821 -0.745221 1.667601 48.011264 -0.000000 0.000001 -0.000003 -7.756786 -9.376457 47.263997 -0.526007 1.541593 45.600539 0.000002 0.000004 -0.000003 0.000000 -0.000000 -0.000000 0.000003 0.000001 0.000001 0.000003 0.000001 0.000001 0.000003 0.000001 0.000001 0.000003 0.000001 0.000001 0.000003 0.000001 0.000000 0.000001 0.000002 -0.000000 0.000003 0.000001 0.000001 0.000003 0.000001 0.000000 0.000001 0.000002 -0.000000 0.000002 0.000001 -0.000000 0.000002 0.000001 -0.000000 -0.000000 -0.000002 0.000000 
-0.317505 70.626419 0.124976 11.198838 -48.748877 10.586854 -0.000000 0.000004 -0.000001 -65.069088 27.982230 42.335695 45.177115 -20.505322 3.332988 2.778827 0.517730 -9.891967 0.000000 0.000002 0.000000 0.000000 0.000002 0.000000 -0.000000 0.000001 0.000001 -33.576513 -0.797760 -24.124575 53.584077 1.694730 -6.551529 -26.867382 -3.034801 24.205991 -0.000000 0.000002 -0.000000 -0.000000 0.000002 -0.000000 0.000001 0.000003 -0.000003 11.303196 1.658859 -1.437503 6.820487 4.003291 -4.358883 -4.905968 4.908425 -3.164089 3.862728 12.291250 -1.920739 -6.200183 23.356418 -3.979421 0.000000 0.000000 -0.000000 0.000000 0.000000 -0.000000 0.000000 0.000000 -0.000000 -1.814712 -15.760692 -2.665048 -6.411800 6.180313 -43.860729 -27.731582 -30.524214 -21.884829 3.321612 -1.302941 8.712408 17.675421 -9.962718 14.363459 -1.544308 10.715710 -8.337687 -0.000002 0.000000 0.000002 -1.232886 -5.734275 0.802561 0.134971 -0.183915 -4.254815 -0.000000 -0.000001 -0.000005 1.887630 4.702327 -3.602157 0.485036 -0.962993 -12.004875 0.000003 -0.000001 0.000000 3.033959 7.976771 -13.109463 -0.695885 -0.515463 -17.900582 -0.000000 0.000000 -0.000004 2.024155 6.336095 -21.392091 -0.804927 -0.159001 -15.751460 -0.000001 0.000002 0.000002 -0.000001 -0.000000 -0.000002 -5.340720 24.139080 1.969917 4.350631 -30.441685 58.441441 -18.072590 49.704892 17.415145 1.682891 29.702147 5.670176 55.149536 18.649531 -29.698281 -0.442529 -14.180540 7.313148 -0.000001 -0.000002 -0.000002 5.673397 7.585013 36.844147 1.050459 3.824486 68.900244 0.000002 0.000000 0.000002 -0.125683 1.886097 45.000780 -1.169016 3.204681 68.417670 0.000002 -0.000001 0.000001 -5.311994 1.216631 58.508828 -0.745225 1.667603 48.011264 -0.000000 -0.000000 0.000005 -7.756789 -9.376446 47.263997 -0.526010 1.541590 45.600539 0.000000 -0.000002 -0.000000 -0.000003 0.000000 0.000000 0.000002 -0.000000 0.000000 0.000002 -0.000000 0.000000 0.000002 -0.000000 0.000000 0.000002 -0.000000 0.000000 0.000002 -0.000000 0.000001 0.000001 -0.000000 0.000000 0.000002 -0.000000 0.000000 0.000002 -0.000000 0.000001 0.000001 -0.000000 0.000000 0.000002 0.000000 -0.000000 0.000002 0.000000 -0.000000 -0.000000 0.000004 -0.000001 
-0.351634 70.571777 -0.005274 10.455363 -47.201511 9.467943 0.000000 0.000000 -0.000000 -66.295674 28.166484 42.922654 45.182111 -21.824374 2.943988 3.412861 -0.445745 -8.765773 -0.000000 -0.000000 -0.000000 -0.000000 -0.000000 -0.000000 0.000000 -0.000003 -0.000000 -32.688657 -1.413788 -24.059198 53.736448 1.095640 -6.028297 -27.175115 -3.593891 24.128265 0.000000 0.000000 0.000000 0.000000 0.000000 0.000000 -0.000003 -0.000002 -0.000001 11.661844 0.235571 -0.678087 7.549277 2.075625 -4.314476 -3.991935 3.122295 -3.196025 5.563814 15.572743 -3.995507 -7.758554 23.150052 -4.360524 0.000000 0.000000 0.000000 0.000000 0.000000 0.000000 0.000000 0.000000 0.000000 -1.655461 -14.708109 -2.114909 -1.483880 9.355410 -43.680316 -32.037603 -33.633935 -27.637478 5.591752 -0.631136 10.414789 16.800857 -10.462454 15.611094 -1.980187 10.119820 -8.272924 0.000002 -0.000001 0.000001 -1.233748 -5.692783 1.901420 0.135986 -0.168699 -3.871200 -0.000003 0.000002 -0.000005 1.890074 4.754251 -2.503433 0.496975 -0.910135 -10.920783 0.000005 0.000004 -0.000003 3.043615 8.029953 -12.012175 -0.683240 -0.458920 -16.801500 -0.000002 0.000000 -0.000004 2.038689 6.367309 -20.293525 -0.794133 -0.101842 -14.652455 0.000001 -0.000001 -0.000000 0.000002 -0.000000 0.000002 -5.307471 24.270509 1.802955 1.453768 -25.527714 60.520653 -10.821464 53.015443 10.322822 1.704920 25.366653 5.343329 55.149539 18.649534 -29.698277 -0.442529 -14.180541 7.313155 -0.000000 0.000002 0.000001 5.673397 7.585011 36.844147 1.050460 3.824484 68.900244 -0.000000 0.000000 0.000002 -0.125685 1.886091 45.000776 -1.169017 3.204683 68.417670 -0.000002 -0.000000 0.000001 -5.311995 1.216628 58.508821 -0.745222 1.667605 48.011268 0.000002 -0.000002 0.000002 -7.756786 -9.376455 47.263990 -0.526007 1.541594 45.600539 -0.000003 0.000000 -0.000003 -0.000001 -0.000001 -0.000003 -0.000001 -0.000001 0.000001 -0.000001 -0.000001 0.000001 -0.000001 -0.000001 0.000001 -0.000001 -0.000001 0.000001 -0.000001 -0.000001 0.000001 -0.000000 -0.000001 0.000000 -0.000001 -0.000001 0.000001 -0.000001 -0.000001 0.000001 -0.000000 -0.000001 0.000000 0.000003 -0.000001 0.000000 0.000003 -0.000001 0.000000 0.000000 0.000000 -0.000000 
-0.267769 70.538887 -0.150111 9.999829 -44.988848 8.173292 0.000000 -0.000001 -0.000000 -68.097307 28.048795 43.437944 45.162082 -23.049701 2.152325 4.306953 -1.257554 -7.021341 -0.000000 0.000000 -0.000000 -0.000000 0.000000 0.000000 -0.000001 -0.000002 -0.000000 -31.692194 -2.299943 -23.697626 53.577349 0.156836 -5.413750 -27.283746 -4.421804 24.180249 -0.000000 -0.000002 -0.000000 -0.000000 -0.000002 -0.000000 -0.000002 -0.000001 -0.000003 11.960648 -1.085720 0.175472 8.102781 0.385616 -4.104676 -3.255017 1.539511 -3.007807 6.795729 18.261742 -5.178653 -8.395207 22.399879 -5.343921 0.000001 -0.000000 0.000000 0.000001 -0.000000 0.000000 0.000001 -0.000000 0.000000 -1.417610 -12.885437 -1.248318 3.234965 10.504726 -44.903050 -34.392700 -35.745925 -31.808891 8.792146 -0.094160 11.512824 15.853740 -11.001089 16.922303 -2.452953 9.487392 -8.212181 0.000003 0.000001 -0.000000 -1.235540 -5.659941 3.076354 0.136967 -0.152451 -3.461077 -0.000004 -0.000001 -0.000005 1.891776 4.813460 -1.328898 0.512624 -0.852551 -9.761904 0.000002 0.000000 -0.000003 3.053133 8.094860 -10.839384 -0.670648 -0.397995 -15.626549 0.000001 -0.000001 -0.000001 2.053461 6.409826 -19.119361 -0.781303 -0.040699 -13.477580 -0.000000 -0.000002 0.000003 -0.000002 0.000002 0.000000 -5.278952 24.198109 1.848199 -1.697273 -21.401689 62.264565 -1.045092 54.471377 0.635577 0.636056 22.377353 6.614188 55.149536 18.649529 -29.698277 -0.442530 -14.180542 7.313151 0.000001 0.000001 0.000000 5.673395 7.585009 36.844151 1.050461 3.824484 68.900244 0.000002 -0.000002 0.000003 -0.125686 1.886094 45.000776 -1.169015 3.204686 68.417670 0.000003 0.000001 -0.000000 -5.311993 1.216624 58.508828 -0.745225 1.667599 48.011264 0.000000 0.000001 0.000002 -7.756783 -9.376455 47.263997 -0.526009 1.541595 45.600539 -0.000003 -0.000000 -0.000001 -0.000002 0.000002 -0.000004 -0.000000 0.000001 -0.000000 -0.000000 0.000001 -0.000000 -0.000000 0.000001 -0.000000 -0.000000 0.000001 -0.000000 -0.000000 0.000001 0.000000 -0.000001 0.000003 -0.000000 -0.000000 0.000001 -0.000000 -0.000000 0.000001 0.000000 -0.000001 0.000003 -0.000000 0.000003 -0.000001 0.000000 0.000003 -0.000001 0.000000 0.000000 -0.000001 -0.000000 
